<svg width="20" height="20" viewBox="0 0 20 20" fill="none" xmlns="http://www.w3.org/2000/svg">
<path d="M0.832031 1.75C0.417818 1.75 0.0820312 2.08579 0.0820312 2.5C0.0820312 2.91421 0.417818 3.25 0.832031 3.25V1.75ZM8.98 14.3364L8.8567 13.5967L8.98 14.3364ZM16.4685 13.0884L16.3452 12.3486H16.3452L16.4685 13.0884ZM17.7934 11.9147L17.0739 11.703V11.703L17.7934 11.9147ZM18.9535 7.97028L19.673 8.1819V8.1819L18.9535 7.97028ZM4.50287 3.72345L3.77987 3.9229L3.77987 3.9229L4.50287 3.72345ZM7.09934 13.1357L7.82234 12.9362L7.09934 13.1357ZM0.832031 3.25H2.89621V1.75H0.832031V3.25ZM9.1033 15.0762L16.5918 13.8282L16.3452 12.3486L8.8567 13.5967L9.1033 15.0762ZM18.5129 12.1263L19.673 8.1819L18.234 7.75865L17.0739 11.703L18.5129 12.1263ZM3.77987 3.9229L4.36191 6.03278L5.8079 5.63389L5.22586 3.524L3.77987 3.9229ZM4.36191 6.03278L6.37635 13.3351L7.82234 12.9362L5.8079 5.63389L4.36191 6.03278ZM17.3546 5.08333H5.08491V6.58333H17.3546V5.08333ZM19.673 8.1819C20.1283 6.63408 18.968 5.08333 17.3546 5.08333V6.58333C17.9665 6.58333 18.4067 7.17155 18.234 7.75865L19.673 8.1819ZM16.5918 13.8282C17.5054 13.6759 18.2516 13.0149 18.5129 12.1263L17.0739 11.703C16.9748 12.0401 16.6917 12.2908 16.3452 12.3486L16.5918 13.8282ZM8.8567 13.5967C8.39367 13.6738 7.94717 13.3887 7.82234 12.9362L6.37635 13.3351C6.70545 14.5281 7.88259 15.2797 9.1033 15.0762L8.8567 13.5967ZM2.89621 3.25C3.30859 3.25 3.67021 3.52537 3.77987 3.9229L5.22586 3.524C4.93675 2.47597 3.9834 1.75 2.89621 1.75V3.25Z" fill="white"/>
<circle cx="15.25" cy="17.25" r="1.25" fill="white"/>
<circle cx="9.25" cy="17.25" r="1.25" fill="white"/>
</svg>
