<svg width="22" height="22" viewBox="0 0 22 22" fill="none" xmlns="http://www.w3.org/2000/svg">
<path d="M2.70711 16.2929L2.17678 15.7626L2.70711 16.2929ZM5 14V13.25C4.80109 13.25 4.61032 13.329 4.46967 13.4697L5 14ZM17 18L17.5303 17.4697C17.3897 17.329 17.1989 17.25 17 17.25V18ZM5 5.25C4.58579 5.25 4.25 5.58579 4.25 6C4.25 6.41421 4.58579 6.75 5 6.75V5.25ZM8 6.75C8.41421 6.75 8.75 6.41421 8.75 6C8.75 5.58579 8.41421 5.25 8 5.25V6.75ZM5 9.25C4.58579 9.25 4.25 9.58579 4.25 10C4.25 10.4142 4.58579 10.75 5 10.75V9.25ZM13 10.75C13.4142 10.75 13.75 10.4142 13.75 10C13.75 9.58579 13.4142 9.25 13 9.25V10.75ZM0.25 3V15.5858H1.75V3H0.25ZM3.23744 16.8232L5.53033 14.5303L4.46967 13.4697L2.17678 15.7626L3.23744 16.8232ZM15 0.25H3V1.75H15V0.25ZM17.75 3C17.75 1.48122 16.5188 0.25 15 0.25V1.75C15.6904 1.75 16.25 2.30964 16.25 3H17.75ZM15 14.75C16.5188 14.75 17.75 13.5188 17.75 12H16.25C16.25 12.6904 15.6904 13.25 15 13.25V14.75ZM0.25 15.5858C0.25 17.1449 2.135 17.9257 3.23744 16.8232L2.17678 15.7626C2.01928 15.9201 1.75 15.8085 1.75 15.5858H0.25ZM1.75 3C1.75 2.30964 2.30964 1.75 3 1.75V0.25C1.48122 0.25 0.25 1.48122 0.25 3H1.75ZM20.25 9V19.5858H21.75V9H20.25ZM19.8232 19.7626L17.5303 17.4697L16.4697 18.5303L18.7626 20.8232L19.8232 19.7626ZM17 17.25H9V18.75H17V17.25ZM9 17.25C8.30964 17.25 7.75 16.6904 7.75 16H6.25C6.25 17.5188 7.48122 18.75 9 18.75V17.25ZM20.25 19.5858C20.25 19.8085 19.9807 19.9201 19.8232 19.7626L18.7626 20.8232C19.865 21.9257 21.75 21.1449 21.75 19.5858H20.25ZM21.75 9C21.75 7.48122 20.5188 6.25 19 6.25V7.75C19.6904 7.75 20.25 8.30964 20.25 9H21.75ZM17 7.75H19V6.25H17V7.75ZM17.75 12V7H16.25V12H17.75ZM17.75 7V3H16.25V7H17.75ZM7.75 16V14H6.25V16H7.75ZM5 14.75H7V13.25H5V14.75ZM7 14.75H15V13.25H7V14.75ZM5 6.75H8V5.25H5V6.75ZM5 10.75H13V9.25H5V10.75Z" fill="white"/>
</svg>
