<svg xmlns="http://www.w3.org/2000/svg" xmlns:xlink="http://www.w3.org/1999/xlink" viewBox="0 0 1296 567.54"><defs><style>.cls-1,.cls-2{fill-rule:evenodd;}.cls-1{fill:url(#linear-gradient);}.cls-2{fill:url(#linear-gradient-2);}.cls-3{fill:white;}</style><linearGradient id="linear-gradient" x1="63.63" y1="559.15" x2="270.85" y2="253.29" gradientTransform="matrix(1, 0, 0, -1, 0, 579.46)" gradientUnits="userSpaceOnUse"><stop offset="0" stop-color="#1882b0"/><stop offset="1" stop-color="#32bacf"/></linearGradient><linearGradient id="linear-gradient-2" x1="39.29" y1="271.97" x2="321.78" y2="165" gradientTransform="matrix(1, 0, 0, -1, 0, 579.46)" gradientUnits="userSpaceOnUse"><stop offset="0" stop-color="#f26d2d"/><stop offset="1" stop-color="#f6922d"/></linearGradient></defs><g id="Layer_2" data-name="Layer 2"><g id="Layer_1-2" data-name="Layer 1"><path class="cls-1" d="M24.09,85.76l168,254.7.4.62a41.85,41.85,0,0,1-12.19,57.48l-.79.51a42,42,0,0,1-30.78,5.64l-.83-.18a41.84,41.84,0,0,1-25.84-17.73L30.1,248.51A156,156,0,0,1,24.09,85.76ZM160.4,6h1.52a156.61,156.61,0,0,1,129.2,69.78l51.64,77.67.4.61A41.85,41.85,0,0,1,331,211.58l-.62.4a42.09,42.09,0,0,1-57.62-12.16L143.15,7A158.26,158.26,0,0,1,160.4,6ZM83.11,0h.79a45.35,45.35,0,0,1,36.94,20.25L151,65.55l-1.06-.08a72.32,72.32,0,0,0-44.77,11.82l-1,.65a72,72,0,0,0-27.72,36.9L46.34,69.55l-.41-.63C32.87,48.56,38.07,21.17,58.29,7.7l.19-.13.19-.13.2-.13.2-.13A43.57,43.57,0,0,1,83.11,0Z"/><path class="cls-2" d="M273.32,452.7,303.43,498l.41.64c13.06,20.36,7.86,47.76-12.36,61.22l-.2.13-.19.13-.2.13-.19.13-.63.41c-20.45,13-47.71,6.72-61.14-13.49L198.81,502l1.07.08a72.13,72.13,0,0,0,73.44-49.37ZM42,349A42,42,0,0,1,77,367.72L206.61,560.56a157.83,157.83,0,0,1-48.52-2.15,156.14,156.14,0,0,1-99.45-66.69L7,414.05A41.94,41.94,0,0,1,42,349ZM191.17,159.75H192a42,42,0,0,1,34.28,18.73L319.66,319l1,1.52a156,156,0,0,1,5,161.23L156.2,224.83l-.41-.62a41.94,41.94,0,0,1,35.38-64.46Z"/><path class="cls-3" d="M462.55,421Q446,416.2,435.92,408.51l11.77-26.1a79.69,79.69,0,0,0,22.88,11.34A86.13,86.13,0,0,0,497.1,398q14.77,0,21.83-4.39T526,382a11.15,11.15,0,0,0-4.18-8.89,31.75,31.75,0,0,0-10.7-5.66q-6.51-2.13-17.64-4.71a239.41,239.41,0,0,1-28-8.14,45.18,45.18,0,0,1-18.72-13q-7.82-9-7.82-24A41.76,41.76,0,0,1,446,294q7.06-10.59,21.29-16.79T502,271a115.63,115.63,0,0,1,28,3.41,82.68,82.68,0,0,1,24,9.85l-10.69,26.31q-20.77-11.76-41.51-11.77-14.56,0-21.5,4.71t-6.95,12.41q0,7.69,8,11.44t24.5,7.39a242.19,242.19,0,0,1,28,8.13,46.33,46.33,0,0,1,18.72,12.83q7.82,8.77,7.81,23.74a40.86,40.86,0,0,1-7.17,23.43q-7.17,10.59-21.5,16.8t-34.87,6.19A123,123,0,0,1,462.55,421Z"/><path class="cls-3" d="M678.51,391.18H609l-13.26,32.09H560.21L627,273.52h34.24l66.95,149.75H691.77Zm-10.92-26.31-23.73-57.34-23.75,57.34Z"/><path class="cls-3" d="M774.14,301.33V340.9h69.32v27.82H774.14v54.55H739.49V273.52H852.65v27.81Z"/><path class="cls-3" d="M1026.23,439.32A47.9,47.9,0,0,1,1008.58,453a54.64,54.64,0,0,1-22.79,4.71,63.18,63.18,0,0,1-30.15-7.18q-13.5-7.16-30.81-25.35a84.1,84.1,0,0,1-36.27-13.05,73.33,73.33,0,0,1-24.82-27.06,76.49,76.49,0,0,1-8.87-36.68q0-22,10.59-39.68A74.62,74.62,0,0,1,894.78,281q18.71-10.06,42-10.05T978.73,281a75.57,75.57,0,0,1,29.32,27.71q10.69,17.65,10.7,39.68,0,26.09-14.66,45.78a75.81,75.81,0,0,1-38.83,27.38,38.22,38.22,0,0,0,10.38,8,24.07,24.07,0,0,0,10.79,2.47q13.92,0,24.39-11.13Zm-130.17-66.1a43.69,43.69,0,0,0,16.79,17,50.11,50.11,0,0,0,47.92,0,43.76,43.76,0,0,0,16.79-17,53.54,53.54,0,0,0,0-49.64,43.79,43.79,0,0,0-16.79-17,50.11,50.11,0,0,0-47.92,0,43.72,43.72,0,0,0-16.79,17,53.54,53.54,0,0,0,0,49.64Z"/><path class="cls-3" d="M1143.17,391.18h-69.53l-13.26,32.09h-35.51l66.74-149.75h34.23l67,149.75h-36.37Zm-10.92-26.31-23.73-57.34-23.75,57.34Z"/><path class="cls-3" d="M1213.42,301.77H1165.5V273.52H1296v28.25h-47.93v121.5h-34.65Z"/><path class="cls-3" d="M538.22,87.43a19.43,19.43,0,0,0,12.56-4.22Q556,79,556,71a15,15,0,0,0-5-11.76q-5-4.45-12.79-4.45a18.67,18.67,0,0,0-12.67,4.45A14.81,14.81,0,0,0,520.42,71q0,8,5.25,12.22A19.42,19.42,0,0,0,538.22,87.43Z"/><path class="cls-3" d="M488.68,87.43a19.45,19.45,0,0,0,12.56-4.22Q506.49,79,506.49,71a14.79,14.79,0,0,0-5.14-11.76,20.26,20.26,0,0,0-25.34,0A14.82,14.82,0,0,0,470.87,71q0,8,5.25,12.22A19.45,19.45,0,0,0,488.68,87.43Z"/><path class="cls-3" d="M575.42,191.31H511.49a95.27,95.27,0,0,1-19.18-1.83,32.63,32.63,0,0,1-14.84-6.85,24.62,24.62,0,0,1-7.42-11.75,61,61,0,0,1-2.17-17.47V114.14h-32v43.15a101.65,101.65,0,0,0,3.42,26.6,43.31,43.31,0,0,0,11.87,20.66,64.89,64.89,0,0,0,11.08,8.56,60.78,60.78,0,0,0,12.9,5.83,83.93,83.93,0,0,0,15.41,3.31,154.11,154.11,0,0,0,18.61,1h98.17V94.73h-32Z"/><path class="cls-3" d="M900.4,75.33A19.4,19.4,0,0,0,913,71.1q5.26-4.21,5.26-12.21a15,15,0,0,0-5-11.76q-5-4.46-12.79-4.45a18.68,18.68,0,0,0-12.67,4.45,14.81,14.81,0,0,0-5.13,11.76q0,8,5.25,12.21A19.37,19.37,0,0,0,900.4,75.33Z"/><path class="cls-3" d="M850.87,75.33a19.37,19.37,0,0,0,12.55-4.23q5.25-4.21,5.25-12.21a14.81,14.81,0,0,0-5.13-11.76,20.28,20.28,0,0,0-25.35,0,14.82,14.82,0,0,0-5.14,11.76q0,8,5.26,12.21A19.4,19.4,0,0,0,850.87,75.33Z"/><path class="cls-3" d="M1012.35,71a22,22,0,0,0,26.25,0q5.6-4.33,5.59-12.78A15.43,15.43,0,0,0,1038.82,46a21.38,21.38,0,0,0-26.7,0,15.4,15.4,0,0,0-5.37,12.22Q1006.75,66.66,1012.35,71Z"/><path class="cls-3" d="M1293,143a43.46,43.46,0,0,0-10.28-19.75,50.27,50.27,0,0,0-20.32-13.13q-11.64-4-27.17-4h-69.64V94.73h-32v96.58H1073V94.73h-37.67A106.49,106.49,0,0,0,1004,99.07a69.17,69.17,0,0,0-24.2,12.67A58.1,58.1,0,0,0,964.17,132a62.46,62.46,0,0,0-5.59,26.94,50.84,50.84,0,0,0,3,17.81,56.88,56.88,0,0,0,8,14.61h-47V94.73H884.88a106.54,106.54,0,0,0-31.28,4.34,69,69,0,0,0-24.19,12.67A58,58,0,0,0,813.76,132a62.46,62.46,0,0,0-5.59,26.94,50.84,50.84,0,0,0,3,17.81,56.88,56.88,0,0,0,8,14.61H654.87V38.11h-32V223.27H1296V169.16A109.11,109.11,0,0,0,1293,143ZM890.59,191.31H857.48a41.14,41.14,0,0,1-12.67-13.7,37.16,37.16,0,0,1-4.68-18.72,29.13,29.13,0,0,1,3.2-13.81,31.92,31.92,0,0,1,8.33-10.16,35.26,35.26,0,0,1,11.88-6.17,46.26,46.26,0,0,1,13.58-2h13.47Zm150.41,0h-33.11a41.14,41.14,0,0,1-12.67-13.7,37.16,37.16,0,0,1-4.68-18.72,29,29,0,0,1,3.2-13.81,31.79,31.79,0,0,1,8.33-10.16,35.31,35.31,0,0,1,11.87-6.17,46.31,46.31,0,0,1,13.58-2H1041Zm223,0h-98.41V137.89h72.83a25.42,25.42,0,0,1,11.31,2.5,22.29,22.29,0,0,1,8.1,6.4,24.48,24.48,0,0,1,4.68,9,42.92,42.92,0,0,1,1.49,12Z"/><path class="cls-3" d="M452.66,528.42a14.3,14.3,0,0,1-5.24-2.67l2-4.42a15.75,15.75,0,0,0,4.62,2.43,16.78,16.78,0,0,0,5.5.94,9.48,9.48,0,0,0,5.1-1.09,3.33,3.33,0,0,0,1.69-2.9,2.78,2.78,0,0,0-.94-2.16,6.65,6.65,0,0,0-2.39-1.34c-1-.32-2.28-.69-3.94-1.09a45.3,45.3,0,0,1-5.67-1.67,9.31,9.31,0,0,1-3.73-2.6,7.07,7.07,0,0,1-1.55-4.8,8.19,8.19,0,0,1,1.38-4.62,9.36,9.36,0,0,1,4.16-3.31,17,17,0,0,1,6.81-1.22,21.87,21.87,0,0,1,5.52.7,15.31,15.31,0,0,1,4.69,2l-1.8,4.43a17.87,17.87,0,0,0-4.21-1.8,15.63,15.63,0,0,0-4.24-.61,9,9,0,0,0-5,1.13,3.54,3.54,0,0,0-1.64,3,2.7,2.7,0,0,0,.94,2.14,6.78,6.78,0,0,0,2.39,1.32c1,.32,2.28.69,3.94,1.09a43.6,43.6,0,0,1,5.61,1.64,9.64,9.64,0,0,1,3.74,2.61,6.86,6.86,0,0,1,1.55,4.73,8.08,8.08,0,0,1-1.38,4.6,9.27,9.27,0,0,1-4.18,3.28,17,17,0,0,1-6.83,1.23A23.09,23.09,0,0,1,452.66,528.42Z"/><path class="cls-3" d="M493.32,498.33H499V529h-5.69Z"/><path class="cls-3" d="M551.22,529l0-20.32L541.1,525.49h-2.54l-10.07-16.56V529h-5.43V498.33h4.69l12.17,20.33,12-20.33h4.68l.05,30.66Z"/><path class="cls-3" d="M600.2,499.65a10.05,10.05,0,0,1,4.54,3.77,11.54,11.54,0,0,1,0,11.62,10,10,0,0,1-4.54,3.79,16.85,16.85,0,0,1-6.94,1.32h-6.92V529h-5.69V498.33h12.61A17,17,0,0,1,600.2,499.65Zm-1.55,14.1a6.23,6.23,0,0,0,0-9,8.75,8.75,0,0,0-5.65-1.58h-6.66v12.18H593A8.75,8.75,0,0,0,598.65,513.75Z"/><path class="cls-3" d="M627.77,498.33h5.7v25.84h16V529H627.77Z"/><path class="cls-3" d="M669.77,498.33h5.7V529h-5.7Z"/><path class="cls-3" d="M705.21,503.11v9.33H720v4.82h-14.8V529h-5.7V498.33h22.4v4.78Z"/><path class="cls-3" d="M743.18,498.33h5.69V529h-5.69Z"/><path class="cls-3" d="M795.91,524.22V529h-23V498.33H795.3v4.78H778.61v8h14.81v4.69H778.61v8.45Z"/><path class="cls-3" d="M818,498.33h13.4a19.18,19.18,0,0,1,8.71,1.91,14.07,14.07,0,0,1,5.92,5.39,16.42,16.42,0,0,1,0,16.07,14.07,14.07,0,0,1-5.92,5.39,19.18,19.18,0,0,1-8.71,1.9H818Zm13.13,25.84a13.05,13.05,0,0,0,5.94-1.29,9.21,9.21,0,0,0,3.94-3.67,11.83,11.83,0,0,0,0-11.09,9.18,9.18,0,0,0-3.94-3.68,13.18,13.18,0,0,0-5.94-1.29h-7.44v21Z"/><path class="cls-3" d="M923.57,515.83a7.71,7.71,0,0,1,1.49,4.84,7.08,7.08,0,0,1-3.06,6.15c-2,1.45-5,2.17-8.94,2.17H897.82V498.33h14.37c3.61,0,6.41.71,8.36,2.13a6.83,6.83,0,0,1,2.94,5.85,7.72,7.72,0,0,1-1,4,7.24,7.24,0,0,1-2.9,2.72A8.08,8.08,0,0,1,923.57,515.83Zm-20.06-13v8.45h8.06a8.16,8.16,0,0,0,4.58-1.07,3.9,3.9,0,0,0,0-6.3,8.16,8.16,0,0,0-4.58-1.08Zm15.82,17.3c0-3-2.21-4.42-6.61-4.42h-9.21v8.85h9.21C917.12,524.53,919.33,523.05,919.33,520.1Z"/><path class="cls-3" d="M966.94,524.17V529h-22.6v-3.81l12.17-11.56a13.08,13.08,0,0,0,2.78-3.44,6.58,6.58,0,0,0,.72-2.91,4,4,0,0,0-1.44-3.29,6.75,6.75,0,0,0-4.25-1.13,8.53,8.53,0,0,0-7.18,3.2l-4-3.07a11.79,11.79,0,0,1,4.84-3.75,16.82,16.82,0,0,1,6.81-1.33,12.53,12.53,0,0,1,8,2.36,7.79,7.79,0,0,1,3,6.44,10.7,10.7,0,0,1-1,4.69,18.4,18.4,0,0,1-4,5l-8.19,7.79Z"/><path class="cls-3" d="M1013.92,515.83a7.71,7.71,0,0,1,1.49,4.84,7.06,7.06,0,0,1-3.06,6.15q-3.06,2.17-8.93,2.17H988.17V498.33h14.37q5.43,0,8.37,2.13a6.85,6.85,0,0,1,2.93,5.85,7.63,7.63,0,0,1-1.05,4,7.28,7.28,0,0,1-2.89,2.72A8.09,8.09,0,0,1,1013.92,515.83Zm-20-13v8.45h8.06a8.21,8.21,0,0,0,4.58-1.07,3.92,3.92,0,0,0,0-6.3,8.2,8.2,0,0,0-4.58-1.08Zm15.81,17.3c0-3-2.21-4.42-6.61-4.42h-9.2v8.85h9.2C1007.47,524.53,1009.68,523.05,1009.68,520.1Z"/><path class="cls-3" d="M1071.34,503.15h-10.16v-4.82h26v4.82H1077V529h-5.7Z"/><path class="cls-3" d="M1127.32,529l-6.26-9a11.27,11.27,0,0,1-1.19,0H1113V529h-5.69V498.33h12.61a17,17,0,0,1,6.94,1.32,10.05,10.05,0,0,1,4.54,3.77,11.43,11.43,0,0,1-.11,11.78,10.06,10.06,0,0,1-4.84,3.72l7,10.07Zm-2.06-24.26a8.77,8.77,0,0,0-5.65-1.58H1113v12.22h6.66a8.65,8.65,0,0,0,5.65-1.6,6.26,6.26,0,0,0,0-9Z"/><path class="cls-3" d="M1174.92,521.9H1159.6l-3,7.09h-5.87l13.8-30.66h5.6L1183.94,529h-6Zm-1.88-4.47-5.79-13.4-5.74,13.4Z"/><path class="cls-3" d="M1203.61,498.33H1217a19.25,19.25,0,0,1,8.72,1.91,14.1,14.1,0,0,1,5.91,5.39,16.42,16.42,0,0,1,0,16.07,14.1,14.1,0,0,1-5.91,5.39A19.25,19.25,0,0,1,1217,529h-13.4Zm13.14,25.84a13,13,0,0,0,5.93-1.29,9.24,9.24,0,0,0,4-3.67,11.91,11.91,0,0,0,0-11.09,9.2,9.2,0,0,0-4-3.68,13.11,13.11,0,0,0-5.93-1.29h-7.45v21Z"/><path class="cls-3" d="M1278.54,524.22V529h-23V498.33h22.38v4.78h-16.69v8h14.81v4.69h-14.81v8.45Z"/></g></g></svg>