<svg width="21" height="15" viewBox="0 0 21 15" fill="none" xmlns="http://www.w3.org/2000/svg">
<path d="M20.5684 2.33374C20.3379 1.47693 19.6624 0.801515 18.8057 0.570802C17.2406 0.142578 10.9802 0.142578 10.9802 0.142578C10.9802 0.142578 4.7201 0.142578 3.15503 0.554566C2.31482 0.785035 1.6228 1.47705 1.39233 2.33374C0.980469 3.89869 0.980469 7.14418 0.980469 7.14418C0.980469 7.14418 0.980469 10.406 1.39233 11.9546C1.62305 12.8113 2.29834 13.4867 3.15516 13.7174C4.73658 14.1458 10.9805 14.1458 10.9805 14.1458C10.9805 14.1458 17.2406 14.1458 18.8057 13.7338C19.6625 13.5032 20.3379 12.8278 20.5686 11.9711C20.9804 10.406 20.9804 7.16066 20.9804 7.16066C20.9804 7.16066 20.9969 3.89869 20.5684 2.33374ZM8.98708 10.1425V4.14588L14.1929 7.14418L8.98708 10.1425Z" fill="white"/>
</svg>
